<svg xmlns="http://www.w3.org/2000/svg" viewBox="0 0 512 512" role="img" aria-label="停车查询图标">
  <defs>
    <linearGradient id="bg" x1="0" x2="1" y1="0" y2="1">
      <stop offset="0%" stop-color="#0f172a"/>
      <stop offset="100%" stop-color="#2563eb"/>
    </linearGradient>
  </defs>
  <rect width="512" height="512" rx="128" fill="url(#bg)"/>
  <circle cx="388" cy="124" r="42" fill="#38bdf8" opacity="0.85"/>
  <path d="M128 150h194c53.02 0 96 42.98 96 96v20c0 26.51-21.49 48-48 48h-22l-16 48h-34l8-48H210l8 48h-34l-16-48h-22c-26.51 0-48-21.49-48-48v-20c0-53.02 42.98-96 96-96Zm-12 90a27 27 0 1 0 0 54 27 27 0 0 0 0-54Zm300 0a27 27 0 1 0 0 54 27 27 0 0 0 0-54ZM198 194c-23.2 0-42 18.8-42 42h224c0-23.2-18.8-42-42-42H198Z" fill="#fff"/>
  <path d="M188 324h136" stroke="#93c5fd" stroke-width="28" stroke-linecap="round"/>
  <text x="86" y="120" fill="#dbeafe" font-size="64" font-family="Arial, sans-serif" font-weight="700">P</text>
</svg>
