<svg xmlns="http://www.w3.org/2000/svg" viewBox="0 0 192 192" role="img" aria-label="停车查询图标">
  <defs>
    <linearGradient id="bg" x1="0" x2="1" y1="0" y2="1">
      <stop offset="0%" stop-color="#0f172a"/>
      <stop offset="100%" stop-color="#2563eb"/>
    </linearGradient>
  </defs>
  <rect width="192" height="192" rx="46" fill="url(#bg)"/>
  <circle cx="146" cy="48" r="18" fill="#38bdf8" opacity="0.85"/>
  <path d="M44 56h72c19.9 0 36 16.1 36 36v8c0 9.9-8.1 18-18 18h-8l-6 18h-12l3-18H81l3 18H72l-6-18h-8c-9.9 0-18-8.1-18-18v-8c0-19.9 16.1-36 36-36Zm-4 34a10 10 0 1 0 0 20 10 10 0 0 0 0-20Zm112 0a10 10 0 1 0 0 20 10 10 0 0 0 0-20ZM70 72c-8.8 0-16 7.2-16 16h84c0-8.8-7.2-16-16-16H70Z" fill="#fff"/>
  <path d="M70 122h56" stroke="#93c5fd" stroke-width="10" stroke-linecap="round"/>
  <text x="34" y="44" fill="#dbeafe" font-size="22" font-family="Arial, sans-serif" font-weight="700">P</text>
</svg>
