<?xml version="1.0" encoding="UTF-8"?>
<svg id="_图层_1" data-name="图层_1" xmlns="http://www.w3.org/2000/svg" xmlns:xlink="http://www.w3.org/1999/xlink" version="1.1" viewBox="0 0 440 956">
  <!-- Generator: Adobe Illustrator 29.5.0, SVG Export Plug-In . SVG Version: 2.1.0 Build 137)  -->
  <defs>
    <style>
      .st0 {
        font-size: 13px;
      }

      .st0, .st1, .st2, .st3, .st4 {
        fill: #5f6e85;
      }

      .st0, .st5, .st6, .st7, .st8, .st9, .st3, .st10 {
        isolation: isolate;
      }

      .st0, .st2, .st3 {
        font-family: PingFangSC-Medium-GBpc-EUC-H, 'PingFang SC';
        font-weight: 500;
      }

      .st1, .st11 {
        font-size: 14px;
      }

      .st1, .st11, .st8, .st12 {
        font-family: 'HarmonyOS_Sans_SC_Medium', 'HarmonyOS Sans SC';
      }

      .st11, .st13, .st14 {
        fill: #fff;
      }

      .st5, .st15 {
        fill: #4f555f;
      }

      .st5, .st7 {
        font-size: 6.7px;
      }

      .st5, .st4 {
        font-family: 'HarmonyOS_Sans_SC', 'HarmonyOS Sans SC';
      }

      .st15 {
        font-family: PingFangSC-Semibold-GBpc-EUC-H, 'PingFang SC';
        font-size: 7.26px;
        font-weight: 600;
      }

      .st16, .st7, .st9, .st17, .st18, .st10, .st14 {
        font-family: 'HarmonyOS_Sans_SC_Bold', 'HarmonyOS Sans SC';
      }

      .st16, .st10 {
        fill: #548eff;
        font-size: 37.52px;
      }

      .st19 {
        fill: url(#_未命名的渐变_151);
      }

      .st19, .st20, .st21 {
        stroke-width: 1px;
      }

      .st19, .st20, .st21, .st22, .st23 {
        stroke: #08b44d;
      }

      .st20 {
        fill: url(#_未命名的渐变_152);
      }

      .st21 {
        fill: url(#_未命名的渐变_153);
      }

      .st22 {
        fill: url(#_未命名的渐变_154);
        stroke-width: .91px;
      }

      .st24 {
        fill: url(#_未命名的渐变);
      }

      .st25 {
        fill: url(#_未命名的渐变_111);
      }

      .st2, .st3 {
        font-size: 10.12px;
      }

      .st7 {
        fill: #4c525d;
      }

      .st26 {
        fill: url(#_未命名的渐变_162);
      }

      .st26, .st27, .st28, .st29 {
        stroke-width: 1px;
      }

      .st26, .st27, .st28, .st29, .st30 {
        stroke: #d9e2f7;
      }

      .st27 {
        fill: url(#_未命名的渐变_773);
      }

      .st28 {
        fill: url(#_未命名的渐变_771);
      }

      .st29 {
        fill: url(#_未命名的渐变_772);
      }

      .st13 {
        stroke: #e3e7ee;
      }

      .st8 {
        fill: #00b23f;
        font-size: 7.38px;
      }

      .st9 {
        fill: #132a5d;
        font-size: 22.14px;
      }

      .st31 {
        fill: url(#_未命名的渐变_52);
      }

      .st31, .st32, .st33 {
        stroke: #4ac4ff;
        stroke-width: .92px;
      }

      .st32 {
        fill: url(#_未命名的渐变_51);
      }

      .st17 {
        font-size: 14.72px;
      }

      .st17, .st12 {
        fill: #08b44d;
      }

      .st18 {
        font-size: 28px;
      }

      .st34 {
        fill: url(#_未命名的渐变_112);
        stroke: #cdd8ea;
        stroke-width: .6px;
      }

      .st35 {
        fill: url(#_未命名的渐变_11);
      }

      .st36 {
        fill: url(#_未命名的渐变_13);
      }

      .st23 {
        fill: url(#_未命名的渐变_15);
        stroke-width: .85px;
      }

      .st12 {
        font-size: 11.18px;
      }

      .st33 {
        fill: url(#_未命名的渐变_5);
      }

      .st4 {
        font-size: 16.22px;
      }

      .st30 {
        fill: url(#_未命名的渐变_77);
        stroke-width: .92px;
      }

      .st14 {
        font-size: 24.63px;
      }
    </style>
    <linearGradient id="_未命名的渐变" data-name="未命名的渐变" x1="220" y1="953.89" x2="220" y2="-2.11" gradientTransform="translate(0 953.89) scale(1 -1)" gradientUnits="userSpaceOnUse">
      <stop offset="0" stop-color="#f8fbff"/>
      <stop offset=".45" stop-color="#eef4ff"/>
      <stop offset="1" stop-color="#edf3ff"/>
    </linearGradient>
    <linearGradient id="_未命名的渐变_11" data-name="未命名的渐变 11" x1="220" y1="1319.04" x2="220" y2="38.3" gradientTransform="translate(0 953.89) scale(1 -1)" gradientUnits="userSpaceOnUse">
      <stop offset="0" stop-color="#fbfdff"/>
      <stop offset="1" stop-color="#f5f9ff"/>
    </linearGradient>
    <linearGradient id="_未命名的渐变_77" data-name="未命名的渐变 77" x1="220" y1="332.14" x2="220" y2="253.11" gradientUnits="userSpaceOnUse">
      <stop offset="0" stop-color="#f3f7ff"/>
      <stop offset="1" stop-color="#4584ff"/>
    </linearGradient>
    <linearGradient id="_未命名的渐变_13" data-name="未命名的渐变 13" x1="220" y1="1412.38" x2="220" y2="-172.33" gradientTransform="translate(0 953.89) scale(1 -1)" gradientUnits="userSpaceOnUse">
      <stop offset="0" stop-color="#fbfdff"/>
      <stop offset="1" stop-color="#f5f9ff"/>
    </linearGradient>
    <linearGradient id="_未命名的渐变_771" data-name="未命名的渐变 77" x1="120.35" y1="188.6" x2="120.35" y2="130.9" xlink:href="#_未命名的渐变_77"/>
    <linearGradient id="_未命名的渐变_772" data-name="未命名的渐变 77" x1="319.65" y1="188.6" x2="319.65" y2="130.9" xlink:href="#_未命名的渐变_77"/>
    <linearGradient id="_未命名的渐变_111" data-name="未命名的渐变 11" y1="781.89" x2="220" y2="323.43" xlink:href="#_未命名的渐变_11"/>
    <linearGradient id="_未命名的渐变_773" data-name="未命名的渐变 77" x1="120.81" y1="426.33" x2="120.81" y2="368.63" xlink:href="#_未命名的渐变_77"/>
    <linearGradient id="_未命名的渐变_162" data-name="未命名的渐变 162" x1="319.19" y1="426.33" x2="319.19" y2="368.63" gradientUnits="userSpaceOnUse">
      <stop offset="0" stop-color="#f3f7ff"/>
      <stop offset="1" stop-color="#ff7045"/>
    </linearGradient>
    <linearGradient id="_未命名的渐变_5" data-name="未命名的渐变 5" x1="87.46" y1="587.38" x2="87.46" y2="38.14" gradientTransform="translate(0 953.89) scale(1 -1)" gradientUnits="userSpaceOnUse">
      <stop offset="0" stop-color="#fbfdff"/>
      <stop offset="1" stop-color="#f5f9ff"/>
    </linearGradient>
    <linearGradient id="_未命名的渐变_51" data-name="未命名的渐变 5" x1="220" x2="220" xlink:href="#_未命名的渐变_5"/>
    <linearGradient id="_未命名的渐变_52" data-name="未命名的渐变 5" x1="352.54" x2="352.54" xlink:href="#_未命名的渐变_5"/>
    <linearGradient id="_未命名的渐变_112" data-name="未命名的渐变 11" y1="395.33" x2="220" y2="305.61" xlink:href="#_未命名的渐变_11"/>
    <linearGradient id="_未命名的渐变_15" data-name="未命名的渐变 15" x1="44.71" y1="677.37" x2="44.71" y2="650.91" gradientTransform="translate(0 953.89) scale(1 -1)" gradientUnits="userSpaceOnUse">
      <stop offset="0" stop-color="#defbe2"/>
      <stop offset="1" stop-color="#eefff0"/>
    </linearGradient>
    <linearGradient id="_未命名的渐变_151" data-name="未命名的渐变 15" x1="115.73" y1="633.96" x2="115.73" y2="607.76" gradientTransform="matrix(1,0,0,1,0,0)" xlink:href="#_未命名的渐变_15"/>
    <linearGradient id="_未命名的渐变_152" data-name="未命名的渐变 15" x1="216.88" y1="633.96" x2="216.88" y2="607.76" gradientTransform="matrix(1,0,0,1,0,0)" xlink:href="#_未命名的渐变_15"/>
    <linearGradient id="_未命名的渐变_153" data-name="未命名的渐变 15" x1="303.9" y1="633.96" x2="303.9" y2="607.76" gradientTransform="matrix(1,0,0,1,0,0)" xlink:href="#_未命名的渐变_15"/>
    <linearGradient id="_未命名的渐变_154" data-name="未命名的渐变 15" x1="377.55" y1="578.12" x2="377.55" y2="598.62" gradientTransform="matrix(1,0,0,1,0,0)" xlink:href="#_未命名的渐变_15"/>
  </defs>
  <rect class="st24" y="0" width="440" height="956"/>
  <g class="st6">
    <text class="st18" transform="translate(164 57.28)"><tspan x="0" y="0">停车查询</tspan></text>
  </g>
  <text class="st0" transform="translate(44.5 84)"><tspan x="0" y="0">手机优先的停车查询工具，支持安装、本地缓存与整点刷新。</tspan></text>
  <rect class="st35" x="12" y="101.06" width="416" height="230.43" rx="14.17" ry="14.17"/>
  <rect class="st13" x="28" y="178.32" width="384" height="58" rx="14.17" ry="14.17"/>
  <text class="st1" transform="translate(48 212.82)"><tspan x="0" y="0">请输入车牌号，例如：沪GAJ226</tspan></text>
  <rect class="st30" x="28" y="250.05" width="384" height="53.54" rx="14.17" ry="14.17"/>
  <text class="st14" transform="translate(195.37 286.48)"><tspan x="0" y="0">查询</tspan></text>
  <text class="st0" transform="translate(28 531.36)"><tspan x="0" y="0">会自动转大写，并把新结果插入列表顶部。</tspan></text>
  <rect class="st36" x="12" y="430.01" width="416" height="510.56" rx="26" ry="26"/>
  <text class="st4" transform="translate(28.63 548.31)"><tspan x="0" y="0">查询结果</tspan></text>
  <text class="st4" transform="translate(347.12 548.31)"><tspan x="0" y="0">查询完成</tspan></text>
  <rect class="st28" x="27.54" y="122.39" width="185.61" height="40" rx="14.17" ry="14.17"/>
  <rect class="st29" x="226.85" y="122.39" width="185.61" height="40" rx="14.17" ry="14.17"/>
  <text class="st11" transform="translate(92.35 148.39)"><tspan x="0" y="0">单车查询</tspan></text>
  <text class="st11" transform="translate(291.65 148.39)"><tspan x="0" y="0">批量查询</tspan></text>
  <rect class="st25" x="12" y="338.89" width="416" height="82.48" rx="14.17" ry="14.17"/>
  <rect class="st27" x="28" y="360.13" width="185.61" height="40" rx="8.58" ry="8.58"/>
  <rect class="st26" x="226.39" y="360.13" width="185.61" height="40" rx="8.58" ry="8.58"/>
  <text class="st11" transform="translate(78.81 385.62)"><tspan x="0" y="0">刷新在场车辆</tspan></text>
  <text class="st11" transform="translate(291.19 385.62)"><tspan x="0" y="0">清空列表</tspan></text>
  <rect class="st33" x="28.55" y="459.58" width="117.81" height="47.11" rx="14.17" ry="14.17"/>
  <path class="st32" d="M174.14,459.58h90.6c7.82,0,14.17,6.35,14.17,14.17v19.89c0,7.2-5.85,13.05-13.05,13.05h-91.72c-7.2,0-13.05-5.85-13.05-13.05v-21.02c0-7.2,5.85-13.05,13.05-13.05Z"/>
  <rect class="st31" x="293.63" y="459.58" width="117.81" height="47.11" rx="13.05" ry="13.05"/>
  <text class="st3" transform="translate(38.6 486.31)"><tspan x="0" y="0">在场车辆</tspan></text>
  <text class="st10" transform="translate(107.37 497.86)"><tspan x="0" y="0">1</tspan></text>
  <text class="st3" transform="translate(175.82 486.31)"><tspan x="0" y="0">已处理</tspan></text>
  <text class="st16" transform="translate(235.42 497.86)"><tspan x="0" y="0">0</tspan></text>
  <text class="st2" transform="translate(308.36 486.31)"><tspan x="0" y="0">总欠费</tspan></text>
  <text class="st16" transform="translate(359.92 497.86)"><tspan x="0" y="0">30</tspan></text>
  <g>
    <g id="result-card">
      <rect class="st34" x="28" y="563.35" width="384" height="77.76" rx="7.78" ry="7.78"/>
    </g>
    <g>
      <path class="st23" d="M37.37,576.4h14.68c1.9,0,3.44,1.54,3.44,3.44v13.7c0,1.9-1.54,3.44-3.44,3.44h-14.68c-1.9,0-3.44-1.54-3.44-3.44v-13.7c0-1.9,1.54-3.44,3.44-3.44Z"/>
      <text class="st8" transform="translate(37.33 589.59)"><tspan x="0" y="0">在场</tspan></text>
    </g>
    <text class="st9" transform="translate(70.25 593.98)"><tspan x="0" y="0">沪GAJ226</tspan></text>
    <g>
      <text class="st5" transform="translate(195.73 584.49)"><tspan x="0" y="0">车主</tspan></text>
      <text class="st7" transform="translate(195.73 594.61)"><tspan x="0" y="0">XINER</tspan></text>
    </g>
    <g>
      <text class="st5" transform="translate(236.35 584.53)"><tspan x="0" y="0">入场时间</tspan></text>
      <text class="st7" transform="translate(236.54 594.65)"><tspan x="0" y="0">2026.03.20 08:53</tspan></text>
    </g>
    <g>
      <text class="st5" transform="translate(307.67 584.53)"><tspan x="0" y="0">今日已停</tspan></text>
      <text class="st7" transform="translate(307.86 594.65)"><tspan x="0" y="0">2.3h</tspan></text>
    </g>
    <rect class="st19" x="70" y="606.09" width="91.48" height="21.95" rx="10.98" ry="10.98"/>
    <g class="st6">
      <text class="st12" transform="translate(93.36 621.46)"><tspan x="0" y="0">标记时间</tspan></text>
    </g>
    <g>
      <rect class="st20" x="171.14" y="606.09" width="91.48" height="21.95" rx="10.98" ry="10.98"/>
      <g class="st6">
        <text class="st12" transform="translate(189.08 621.46)"><tspan x="0" y="0">标记已处理</tspan></text>
      </g>
    </g>
    <g>
      <rect class="st21" x="273.77" y="606.09" width="60.27" height="21.95" rx="10.98" ry="10.98"/>
      <text class="st12" transform="translate(292.72 621.46)"><tspan x="0" y="0">删除</tspan></text>
    </g>
    <rect class="st22" x="350.73" y="579.21" width="53.65" height="17.77" rx="3.44" ry="3.44"/>
    <text class="st15" transform="translate(354.3 592.37)"><tspan x="0" y="0">欠费</tspan></text>
    <text class="st17" transform="translate(373.79 593.34)"><tspan x="0" y="0">¥45</tspan></text>
  </g>
</svg>