<?xml version="1.0" encoding="UTF-8"?>
<svg id="_图层_1" data-name="图层_1" xmlns="http://www.w3.org/2000/svg" xmlns:xlink="http://www.w3.org/1999/xlink" version="1.1" viewBox="0 0 1320 300">
  <!-- Generator: Adobe Illustrator 29.5.0, SVG Export Plug-In . SVG Version: 2.1.0 Build 137)  -->
  <defs>
    <style>
      .st0 {
        fill: #4c525d;
      }

      .st0, .st1 {
        font-size: 22.42px;
      }

      .st0, .st1, .st2, .st3, .st4 {
        isolation: isolate;
      }

      .st0, .st5, .st4 {
        font-family: 'HarmonyOS_Sans_SC_Bold', 'HarmonyOS Sans SC';
      }

      .st1 {
        font-family: 'HarmonyOS_Sans_SC', 'HarmonyOS Sans SC';
      }

      .st1, .st6 {
        fill: #4f555f;
      }

      .st7 {
        fill: url(#_未命名的渐变);
        stroke: #cdd8ea;
        stroke-width: 2px;
      }

      .st5 {
        font-size: 49.23px;
      }

      .st5, .st8 {
        fill: #08b44d;
      }

      .st9 {
        fill: url(#_未命名的渐变_33);
      }

      .st9, .st10, .st11 {
        stroke-width: 3.36px;
      }

      .st9, .st10, .st11, .st12, .st13 {
        stroke: #08b44d;
      }

      .st10 {
        fill: url(#_未命名的渐变_31);
      }

      .st11 {
        fill: url(#_未命名的渐变_32);
      }

      .st12 {
        fill: url(#_未命名的渐变_34);
        stroke-width: 3.03px;
      }

      .st6 {
        font-family: PingFangSC-Semibold-GBpc-EUC-H, 'PingFang SC';
        font-size: 24.28px;
        font-weight: 600;
      }

      .st3 {
        fill: #00b23f;
        font-size: 24.68px;
      }

      .st3, .st8 {
        font-family: 'HarmonyOS_Sans_SC_Medium', 'HarmonyOS Sans SC';
      }

      .st4 {
        fill: #132a5d;
        font-size: 74.02px;
      }

      .st8 {
        font-size: 37.4px;
      }

      .st13 {
        fill: url(#_未命名的渐变_3);
        stroke-width: 2.83px;
      }
    </style>
    <linearGradient id="_未命名的渐变" data-name="未命名的渐变" x1="660" y1="295.89" x2="660" y2="-4.11" gradientTransform="translate(0 299.89) scale(1 -1)" gradientUnits="userSpaceOnUse">
      <stop offset="0" stop-color="#fbfdff"/>
      <stop offset="1" stop-color="#f5f9ff"/>
    </linearGradient>
    <linearGradient id="_未命名的渐变_3" data-name="未命名的渐变 3" x1="73.87" y1="1238.96" x2="73.87" y2="1150.48" gradientTransform="translate(0 299.89) scale(1 -1)" gradientUnits="userSpaceOnUse">
      <stop offset="0" stop-color="#defbe2"/>
      <stop offset="1" stop-color="#eefff0"/>
    </linearGradient>
    <linearGradient id="_未命名的渐变_31" data-name="未命名的渐变 3" x1="311.36" y1="256.13" x2="311.36" y2="168.52" gradientTransform="matrix(1,0,0,1,0,0)" xlink:href="#_未命名的渐变_3"/>
    <linearGradient id="_未命名的渐变_32" data-name="未命名的渐变 3" x1="649.56" y1="256.13" x2="649.56" y2="168.52" gradientTransform="matrix(1,0,0,1,0,0)" xlink:href="#_未命名的渐变_3"/>
    <linearGradient id="_未命名的渐变_33" data-name="未命名的渐变 3" x1="940.55" y1="256.13" x2="940.55" y2="168.52" gradientTransform="matrix(1,0,0,1,0,0)" xlink:href="#_未命名的渐变_3"/>
    <linearGradient id="_未命名的渐变_34" data-name="未命名的渐变 3" x1="1186.81" y1="69.4" x2="1186.81" y2="137.96" gradientTransform="matrix(1,0,0,1,0,0)" xlink:href="#_未命名的渐变_3"/>
  </defs>
  <g id="result-card">
    <rect class="st7" x="18" y="20" width="1284" height="260" rx="26" ry="26"/>
  </g>
  <g>
    <path class="st13" d="M49.32,63.66h49.1c6.35,0,11.5,5.15,11.5,11.5v45.82c0,6.35-5.15,11.5-11.5,11.5h-49.09c-6.35,0-11.5-5.15-11.5-11.5v-45.82c0-6.35,5.15-11.5,11.5-11.5Z"/>
    <text class="st3" transform="translate(49.19 107.76)"><tspan x="0" y="0">在场</tspan></text>
  </g>
  <text class="st4" transform="translate(159.27 122.44)"><tspan x="0" y="0">沪GAJ226</tspan></text>
  <g>
    <text class="st1" transform="translate(578.86 90.7)"><tspan x="0" y="0">车主</tspan></text>
    <text class="st0" transform="translate(578.86 124.55)"><tspan x="0" y="0">XINER</tspan></text>
  </g>
  <g>
    <text class="st1" transform="translate(714.67 90.83)"><tspan x="0" y="0">入场时间</tspan></text>
    <text class="st0" transform="translate(715.3 124.68)"><tspan x="0" y="0">2026.03.20 08:53</tspan></text>
  </g>
  <g>
    <text class="st1" transform="translate(953.14 90.83)"><tspan x="0" y="0">今日已停</tspan></text>
    <text class="st0" transform="translate(953.79 124.68)"><tspan x="0" y="0">2.3h</tspan></text>
  </g>
  <rect class="st10" x="158.43" y="162.93" width="305.87" height="73.41" rx="36.71" ry="36.71"/>
  <g class="st2">
    <text class="st8" transform="translate(236.56 214.31)"><tspan x="0" y="0">标记时间</tspan></text>
  </g>
  <g>
    <rect class="st11" x="496.62" y="162.93" width="305.87" height="73.41" rx="36.71" ry="36.71"/>
    <g class="st2">
      <text class="st8" transform="translate(556.61 214.31)"><tspan x="0" y="0">标记已处理</tspan></text>
    </g>
  </g>
  <g>
    <rect class="st9" x="839.78" y="162.93" width="201.54" height="73.41" rx="36.71" ry="36.71"/>
    <text class="st8" transform="translate(903.15 214.31)"><tspan x="0" y="0">删除</tspan></text>
  </g>
  <rect class="st12" x="1097.11" y="73.06" width="179.39" height="59.42" rx="11.5" ry="11.5"/>
  <text class="st6" transform="translate(1109.07 117.05)"><tspan x="0" y="0">欠费</tspan></text>
  <text class="st5" transform="translate(1174.24 120.27)"><tspan x="0" y="0">¥45</tspan></text>
</svg>